<?xml version="1.0" encoding="utf-8"?>
<!-- Generator: Adobe Illustrator 23.0.3, SVG Export Plug-In . SVG Version: 6.00 Build 0)  -->
<svg fill="#fff48a" version="1.1" id="Layer_1" xmlns="http://www.w3.org/2000/svg" xmlns:xlink="http://www.w3.org/1999/xlink" x="0px" y="0px"
	 viewBox="0 0 56 56" style="enable-background:new 0 0 56 56;" xml:space="preserve">
<style type="text/css">
	.st0{fill:#FFFFFF;stroke:#191919;stroke-width:2;stroke-linecap:round;stroke-linejoin:round;}
	.st1{fill:none;stroke:#191919;stroke-width:2;stroke-linecap:round;stroke-linejoin:round;}
</style>
<path d="M28,0L28,0c15.5,0,28,12.5,28,28l0,0c0,15.5-12.5,28-28,28l0,0C12.5,56,0,43.5,0,28l0,0C0,12.5,12.5,0,28,0z"/>
<path class="st0" d="M38.7,40.3l-9.9,5.5c-0.6,0.3-1.4,0.3-2,0l-9.9-5.5c-0.6-0.3-1-0.9-1.2-1.6l-3.6-22.3c-0.1-0.6,0-1.3,0.4-1.7
	c0.4-0.4,1-0.7,1.6-0.7h27.3c0.6,0,1.3,0.3,1.6,0.7c0.4,0.4,0.6,1.2,0.4,1.7l-3.6,22.3C39.7,39.5,39.2,40,38.7,40.3z"/>
<path class="st1" d="M35.4,20.3H20.3l1.2,6.5h12.9l-1.2,8.6l-5.5,3.3l-5.3-3.2"/>
</svg>
