<?xml version="1.0" encoding="utf-8"?>
<!-- Generator: Adobe Illustrator 23.0.3, SVG Export Plug-In . SVG Version: 6.00 Build 0)  -->
<svg fill="#d2fae6" version="1.1" id="Layer_1" xmlns="http://www.w3.org/2000/svg" xmlns:xlink="http://www.w3.org/1999/xlink" x="0px" y="0px"
	 viewBox="0 0 56 56" style="enable-background:new 0 0 56 56;" xml:space="preserve">
<style type="text/css">
	.st0{fill:#FFFFFF;}
	.st1{fill:#FFFFFF;stroke:#191919;stroke-width:2;stroke-linecap:round;stroke-linejoin:round;}
	.st2{fill:none;stroke:#191919;stroke-width:2;stroke-linecap:round;stroke-linejoin:round;}
</style>
<path d="M28,0L28,0c15.5,0,28,12.5,28,28l0,0c0,15.5-12.5,28-28,28l0,0C12.5,56,0,43.5,0,28l0,0C0,12.5,12.5,0,28,0z"/>
<path class="st0" d="M41.6,22.6h-8.5c-1.1,0-2.1-1-2.1-2.1V12"/>
<path class="st1" d="M41.6,22.6h-8.5c-1.1,0-2.1-1-2.1-2.1V12"/>
<path class="st2" d="M27.9,43.9H16.1c-1.1,0-2.1-1-2.1-2.1V14.1c0-1.1,1-2.1,2.1-2.1h15c0.6,0,1.1,0.3,1.6,0.6l8.4,8.4
	c0.4,0.4,0.6,1,0.6,1.6V29"/>
<path class="st2" d="M37.4,33.4v8.5c0,1.1-1,2.1-2.1,2.1h-2.1"/>
<path class="st2" d="M45.9,33.4h-2.1c-1.1,0-2.1,1-2.1,2.1c0,3.1,4.2,3.1,4.2,6.4c0,1.1-1,2.1-2.1,2.1h-2.1"/>
</svg>
